<svg width="50" height="44" viewBox="0 0 50 44" fill="none" xmlns="http://www.w3.org/2000/svg">
<g filter="url(#filter0_d)">
<path d="M15.7323 25.5368H17.0683H39.8478C40.3982 25.5368 40.8832 25.1744 41.0404 24.6456L45.9482 8.12926C46.0604 7.75189 45.988 7.3436 45.7533 7.02789C45.5184 6.71217 45.1486 6.5262 44.7558 6.5262H13.0882L11.4138 0.891065C11.2567 0.362411 10.7716 9.07888e-09 10.2212 9.07888e-09H5.24433C4.55716 -8.22077e-05 4 0.558252 4 1.24706C4 1.93579 4.55716 2.49421 5.24433 2.49421H9.29349L10.96 8.1023C10.965 8.1208 10.9704 8.13913 10.9763 8.15722L15.4032 23.0551C12.8763 23.2254 10.872 25.3389 10.872 27.9139C10.872 30.5999 13.0523 32.7852 15.7322 32.7852H16.9675C17.5074 34.6402 19.2182 36 21.2411 36C23.2639 36 24.9749 34.6403 25.5147 32.7852H32.1168C32.6566 34.6402 34.3675 36 36.3904 36C38.4132 36 40.1241 34.6403 40.6639 32.7852H42.2671C42.9543 32.7852 43.5114 32.2267 43.5114 31.538C43.5114 30.8493 42.9543 30.2909 42.2671 30.2909H40.6639C40.1241 28.4357 38.4132 27.076 36.3904 27.076C34.3675 27.076 32.6565 28.4357 32.1168 30.2909H25.5147C24.9749 28.4357 23.264 27.076 21.2411 27.076C19.2182 27.076 17.5073 28.4357 16.9675 30.2909H15.7322C14.4245 30.2909 13.3606 29.2245 13.3606 27.9138C13.3606 26.6031 14.4246 25.5368 15.7323 25.5368ZM33.9863 9.02033H43.0869L41.3741 14.7843H33.9863V9.02033V9.02033ZM33.9862 17.2786H40.6329L38.9201 23.0426H33.9862V17.2786ZM24.7789 9.02033H31.4977V14.7843H24.7789V9.02033ZM24.7788 17.2786H31.4976V23.0426H24.7788V17.2786V17.2786ZM22.2904 23.0426H17.9961L16.2834 17.2786H22.2904V23.0426V23.0426ZM13.8295 9.02033H22.2903V14.7843H15.5422L13.8295 9.02033ZM36.3904 29.5702C37.473 29.5702 38.3537 30.4529 38.3537 31.5379C38.3537 32.6229 37.473 33.5056 36.3904 33.5056C35.3079 33.5056 34.4272 32.6229 34.4272 31.5379C34.4272 30.4529 35.3079 29.5702 36.3904 29.5702ZM21.2412 29.5702C22.3238 29.5702 23.2045 30.4529 23.2045 31.5379C23.2045 32.6229 22.3238 33.5056 21.2412 33.5056C20.1586 33.5056 19.2779 32.6229 19.2779 31.5379C19.2779 30.4529 20.1586 29.5702 21.2412 29.5702Z" fill="white"/>
</g>
<defs>
<filter id="filter0_d" x="0" y="0" width="50" height="44" filterUnits="userSpaceOnUse" color-interpolation-filters="sRGB">
<feFlood flood-opacity="0" result="BackgroundImageFix"/>
<feColorMatrix in="SourceAlpha" type="matrix" values="0 0 0 0 0 0 0 0 0 0 0 0 0 0 0 0 0 0 127 0"/>
<feOffset dy="4"/>
<feGaussianBlur stdDeviation="2"/>
<feColorMatrix type="matrix" values="0 0 0 0 0 0 0 0 0 0 0 0 0 0 0 0 0 0 0.25 0"/>
<feBlend mode="normal" in2="BackgroundImageFix" result="effect1_dropShadow"/>
<feBlend mode="normal" in="SourceGraphic" in2="effect1_dropShadow" result="shape"/>
</filter>
</defs>
</svg>
