<svg width="50" height="44" viewBox="0 0 50 44" fill="none" xmlns="http://www.w3.org/2000/svg">
<g filter="url(#filter0_d)">
<path d="M15.7323 25.4792H17.0683H39.8478C40.3982 25.4792 40.8832 25.1176 41.0404 24.5901L45.9482 8.11094C46.0604 7.73441 45.988 7.32705 45.7533 7.01205C45.5184 6.69704 45.1486 6.51149 44.7557 6.51149H13.0882L11.4138 0.889056C11.2567 0.361594 10.7716 9.05841e-09 10.2212 9.05841e-09H5.24433C4.55716 -8.20224e-05 4 0.556993 4 1.24425C4 1.93143 4.55716 2.48859 5.24433 2.48859H9.29349L10.96 8.08403C10.965 8.10249 10.9704 8.12078 10.9763 8.13883L15.4032 23.0031C12.8763 23.1731 10.872 25.2818 10.872 27.851C10.872 30.5309 13.0523 32.7113 15.7322 32.7113H16.9675C17.5074 34.5621 19.2182 35.9189 21.2411 35.9189C23.2639 35.9189 24.9749 34.5622 25.5147 32.7113H32.1168C32.6566 34.5621 34.3675 35.9189 36.3904 35.9189C38.4132 35.9189 40.1241 34.5622 40.6639 32.7113H42.2671C42.9543 32.7113 43.5114 32.1541 43.5114 31.4669C43.5114 30.7797 42.9543 30.2226 42.2671 30.2226H40.6639C40.1241 28.3716 38.4132 27.015 36.3904 27.015C34.3675 27.015 32.6565 28.3716 32.1168 30.2226H25.5147C24.9749 28.3716 23.264 27.015 21.2411 27.015C19.2182 27.015 17.5073 28.3716 16.9675 30.2226H15.7322C14.4245 30.2226 13.3606 29.1586 13.3606 27.8509C13.3606 26.5432 14.4246 25.4792 15.7323 25.4792ZM33.9863 9H43.0869L41.3741 14.751H33.9863V9ZM33.9862 17.2396H40.6329L38.9201 22.9906H33.9862V17.2396ZM24.7789 9H31.4977V14.751H24.7789V9ZM24.7788 17.2396H31.4976V22.9906H24.7788V17.2396ZM22.2904 22.9906H17.9961L16.2834 17.2396H22.2904V22.9906ZM13.8295 9H22.2903V14.751H15.5422L13.8295 9ZM36.3904 29.5036C37.473 29.5036 38.3537 30.3843 38.3537 31.4668C38.3537 32.5494 37.473 33.4301 36.3904 33.4301C35.3079 33.4301 34.4272 32.5494 34.4272 31.4668C34.4272 30.3843 35.3079 29.5036 36.3904 29.5036ZM21.2412 29.5036C22.3238 29.5036 23.2045 30.3843 23.2045 31.4668C23.2045 32.5494 22.3238 33.4301 21.2412 33.4301C20.1586 33.4301 19.2779 32.5494 19.2779 31.4668C19.2779 30.3843 20.1586 29.5036 21.2412 29.5036Z" fill="#F22361"/>
</g>
<defs>
<filter id="filter0_d" x="0" y="0" width="50" height="43.9189" filterUnits="userSpaceOnUse" color-interpolation-filters="sRGB">
<feFlood flood-opacity="0" result="BackgroundImageFix"/>
<feColorMatrix in="SourceAlpha" type="matrix" values="0 0 0 0 0 0 0 0 0 0 0 0 0 0 0 0 0 0 127 0"/>
<feOffset dy="4"/>
<feGaussianBlur stdDeviation="2"/>
<feColorMatrix type="matrix" values="0 0 0 0 0 0 0 0 0 0 0 0 0 0 0 0 0 0 0.25 0"/>
<feBlend mode="normal" in2="BackgroundImageFix" result="effect1_dropShadow"/>
<feBlend mode="normal" in="SourceGraphic" in2="effect1_dropShadow" result="shape"/>
</filter>
</defs>
</svg>
