<svg width="70" height="67" viewBox="0 0 70 67" fill="none" xmlns="http://www.w3.org/2000/svg">
<path d="M22.6274 17.9906C22.958 17.9906 23.2896 17.8766 23.5524 17.6456C23.5711 17.6292 23.5908 17.6108 23.6085 17.5934C24.1425 17.0828 24.1425 16.2542 23.6085 15.743C23.0744 15.2318 22.2092 15.2318 21.6752 15.743C21.6736 15.7445 21.6709 15.7466 21.6682 15.7491C21.1449 16.2414 21.1203 17.0465 21.6202 17.5674C21.8899 17.8485 22.2584 17.9906 22.6274 17.9906Z" fill="white"/>
<path d="M35.0005 10.4688C32.0141 10.4688 29.0388 11.1547 26.3963 12.4521C25.7245 12.7818 25.4596 13.5705 25.8041 14.2136C26.1485 14.8566 26.9726 15.1107 27.6444 14.781C29.935 13.6564 32.4098 13.0859 35.0005 13.0859C43.8958 13.0859 51.1333 20.0133 51.1333 28.5279C51.1333 31.669 50.1534 34.6915 48.3002 37.2694C48.0112 37.6717 47.7154 38.0791 47.4168 38.4911C44.3156 42.7665 40.8367 47.5643 40.276 52.3438H29.7246C29.1638 47.5643 25.685 42.7665 22.5837 38.4911C22.2846 38.0791 21.9893 37.6717 21.6998 37.2694C19.8472 34.6915 18.8672 31.669 18.8672 28.5279C18.8672 25.653 19.6982 22.8483 21.2694 20.4166C21.6667 19.8022 21.468 18.9961 20.8261 18.6158C20.1836 18.2349 19.3414 18.4256 18.9441 19.04C17.1048 21.8852 16.1328 25.1659 16.1328 28.5279C16.1328 32.2006 17.2789 35.7369 19.4477 38.7533C19.7388 39.1586 20.0368 39.5686 20.338 39.9837C23.2646 44.0178 26.5512 48.5509 27.0132 52.6878C26.0716 53.1744 25.4302 54.1282 25.4302 55.2227V59.9336C25.4302 61.05 26.0978 62.0192 27.0703 62.4966V63.5977C27.0703 65.4736 28.665 67 30.625 67H39.3755C41.3355 67 42.9302 65.4736 42.9302 63.5977V62.4966C43.9027 62.0192 44.5703 61.05 44.5703 59.9336V55.2227C44.5703 54.1282 43.9289 53.1744 42.9874 52.6878C43.4499 48.5509 46.7365 44.0178 49.6626 39.9837C49.9638 39.5686 50.2618 39.1581 50.5528 38.7533C52.7216 35.7369 53.8677 32.2011 53.8677 28.5279C53.8677 18.5703 45.404 10.4688 35.0005 10.4688ZM41.8359 55.2227V56.2695H37.5934C36.8382 56.2695 36.2262 56.8553 36.2262 57.5781C36.2262 58.3004 36.8382 58.8867 37.5934 58.8867H41.8359V59.9336C41.8359 60.0757 41.711 60.1953 41.563 60.1953H28.4375C28.2896 60.1953 28.1646 60.0757 28.1646 59.9336V55.2227C28.1646 55.0806 28.2896 54.9609 28.4375 54.9609H41.563C41.711 54.9609 41.8359 55.0806 41.8359 55.2227ZM39.3755 64.3828H30.625C30.1807 64.3828 29.8047 64.0235 29.8047 63.5977V62.8125H40.1958V63.5977C40.1958 64.0235 39.8199 64.3828 39.3755 64.3828Z" fill="white"/>
<path d="M35.0005 6.76277C35.7551 6.76277 36.3677 6.17646 36.3677 5.45418V1.30859C36.3677 0.5858 35.7551 0 35.0005 0C34.2453 0 33.6333 0.5858 33.6333 1.30859V5.45418C33.6333 6.17646 34.2453 6.76277 35.0005 6.76277Z" fill="white"/>
<path d="M16.9872 13.1376C17.2543 13.3927 17.6041 13.521 17.9539 13.521C18.3037 13.521 18.654 13.3927 18.9211 13.1376C19.4546 12.6265 19.4546 11.7979 18.9211 11.2867L15.8582 8.35565C15.3242 7.84499 14.459 7.84499 13.925 8.35565C13.3909 8.86682 13.3909 9.69543 13.925 10.2066L16.9872 13.1376Z" fill="white"/>
<path d="M10.8937 27.2192H6.5625C5.80734 27.2192 5.19531 27.805 5.19531 28.5278C5.19531 29.2501 5.80734 29.8364 6.5625 29.8364H10.8937C11.6483 29.8364 12.2609 29.2501 12.2609 28.5278C12.2609 27.805 11.6483 27.2192 10.8937 27.2192Z" fill="white"/>
<path d="M16.9872 43.918L13.925 46.8491C13.3909 47.3597 13.3909 48.1884 13.925 48.6995C14.192 48.9551 14.5418 49.0829 14.8916 49.0829C15.2414 49.0829 15.5912 48.9551 15.8582 48.6995L18.9211 45.7685C19.4546 45.2578 19.4546 44.4292 18.9211 43.918C18.387 43.4069 17.5213 43.4069 16.9872 43.918Z" fill="white"/>
<path d="M53.0132 43.918C52.4791 43.4069 51.6139 43.4069 51.0793 43.918C50.5458 44.4287 50.5458 45.2573 51.0793 45.7685L54.1416 48.6995C54.4087 48.9551 54.759 49.0829 55.1088 49.0829C55.4586 49.0829 55.8084 48.9551 56.0755 48.6995C56.609 48.1889 56.609 47.3603 56.0755 46.8491L53.0132 43.918Z" fill="white"/>
<path d="M63.4381 27.2192H59.1074C58.3523 27.2192 57.7402 27.805 57.7402 28.5278C57.7402 29.2501 58.3523 29.8364 59.1074 29.8364H63.4381C64.1933 29.8364 64.8053 29.2501 64.8053 28.5278C64.8053 27.805 64.1933 27.2192 63.4381 27.2192Z" fill="white"/>
<path d="M54.1422 8.35555L51.0793 11.2866C50.5458 11.7978 50.5458 12.6264 51.0793 13.1375C51.3464 13.3926 51.6962 13.5209 52.0465 13.5209C52.3963 13.5209 52.7461 13.3926 53.0132 13.1375L56.0755 10.2065C56.609 9.69532 56.609 8.86671 56.0755 8.35555C55.5414 7.84438 54.6762 7.84438 54.1422 8.35555Z" fill="white"/>
<path d="M33.6328 58.8867H33.6649C34.42 58.8867 35.032 58.3009 35.032 57.5781C35.032 56.8558 34.42 56.2695 33.6649 56.2695H33.6328C32.8777 56.2695 32.2656 56.8558 32.2656 57.5781C32.2656 58.3009 32.8777 58.8867 33.6328 58.8867Z" fill="white"/>
<path d="M35.9668 36.3697C35.4327 35.8585 34.567 35.8585 34.033 36.3697C33.4994 36.8809 33.4994 37.7095 34.033 38.2201C34.567 38.7313 35.4327 38.7313 35.9668 38.2201C36.5008 37.7095 36.5008 36.8809 35.9668 36.3697Z" fill="white"/>
<path d="M42.7343 31.2011C43.0841 31.2011 43.4339 31.0734 43.7009 30.8178C44.235 30.3066 44.235 29.478 43.7009 28.9668C38.9035 24.375 31.0972 24.375 26.2997 28.9668C25.7657 29.478 25.7657 30.3066 26.2997 30.8178C26.8338 31.3284 27.6989 31.3284 28.233 30.8178C31.9645 27.2462 38.0362 27.2462 41.7676 30.8178C42.0347 31.0734 42.3845 31.2011 42.7343 31.2011Z" fill="white"/>
<path d="M39.101 35.1474C39.4513 35.1474 39.8006 35.0191 40.0677 34.764C40.6017 34.2528 40.6017 33.4242 40.0677 32.9131C37.4022 30.3623 33.0656 30.3623 30.4001 32.9131C29.8666 33.4242 29.8666 34.2528 30.4001 34.764C30.9342 35.2747 31.7999 35.2747 32.334 34.764C33.9329 33.233 36.5354 33.233 38.1344 34.764C38.4014 35.0191 38.7512 35.1474 39.101 35.1474Z" fill="white"/>
</svg>
